<svg height="512" viewBox="0 0 128 128" width="512" xmlns="http://www.w3.org/2000/svg"><g id="number"><text fill="#24253a" font-family="MyriadPro-Regular, Myriad Pro" font-size="40" letter-spacing=".002em" transform="translate(43.419 -738.265)">10<tspan x="0" y="228">20</tspan><tspan x="0" y="456">30</tspan><tspan x="0" y="684">40</tspan><tspan x="0" y="912">50</tspan><tspan x="0" y="1140">60</tspan><tspan x="0" y="1368">70</tspan><tspan x="0" y="1596">80</tspan><tspan x="0" y="1824">90</tspan><tspan x="-10.299" y="2052">100</tspan><tspan x="-10.299" y="2280">110</tspan><tspan x="-10.299" y="2508">120</tspan><tspan x="-10.299" y="2736">130</tspan><tspan x="-10.299" y="2964">140</tspan><tspan x="-10.299" y="3192">150</tspan><tspan x="-10.299" y="3420">160</tspan><tspan x="-10.299" y="3648">170</tspan><tspan x="-10.299" y="3876">180</tspan><tspan x="-10.299" y="4104">190</tspan><tspan x="-10.299" y="4332">200</tspan><tspan x="-10.299" y="4560">210</tspan><tspan x="-10.299" y="4788">220</tspan><tspan x="-10.299" y="5016">230</tspan><tspan x="-10.299" y="5244">240</tspan><tspan x="-10.299" y="5472">250</tspan></text></g><g id="icon"><path d="m111.068 6.073h-94.139l12.206 116.759v.006c0 2.3 13.561 4.16 34.866 4.16s34.866-1.863 34.866-4.16c0-.008 0-.015 0-.023z" fill="#f0f5f9"/><path d="m24.483 42.647 8.186 82c3.242 1.027 13.376 2.353 31.331 2.353s28.078-1.322 31.326-2.354l8.185-82z" fill="#5fc4f8"/><ellipse cx="63.999" cy="42.647" fill="#3dbce9" rx="39.515" ry="3.766"/><g opacity=".5"><path d="m70.238 126.963q-2.43.038-5.009.037a217.634 217.634 0 0 1 -25.414-1.224c-6.06-.755-9.449-1.794-9.449-2.944l-12.207-116.759h10.03l12.211 116.759c0 1.15 3.388 2.189 9.436 2.944a197.108 197.108 0 0 0 20.402 1.187z" fill="#fff"/></g><g opacity=".5"><path d="m88.25 126.975c-1.05.025-2.127.025-3.215.025a217.666 217.666 0 0 1 -25.415-1.224c-6.06-.755-9.448-1.794-9.448-2.944l-12.207-116.759h6.235l12.205 116.759c0 1.15 3.388 2.189 9.448 2.944a204.033 204.033 0 0 0 22.397 1.199z" fill="#fff"/></g><ellipse cx="64.002" cy="6.076" fill="#f0f5f9" rx="47.07" ry="5.076"/><g fill="#2f3a5a"><path d="m64 12.152a328.912 328.912 0 0 1 -33.389-1.492c-14.678-1.583-14.678-3.535-14.678-4.584s0-3 14.678-4.583a328.59 328.59 0 0 1 33.389-1.493 328.59 328.59 0 0 1 33.393 1.493c14.678 1.583 14.678 3.534 14.678 4.583s0 3-14.678 4.584a328.912 328.912 0 0 1 -33.393 1.492zm-45.926-6.076c2.253 1.73 19.14 4.076 45.928 4.076s43.675-2.346 45.928-4.076c-2.252-1.729-19.139-4.076-45.93-4.076s-43.674 2.347-45.926 4.076z"/><path d="m64 128a219.072 219.072 0 0 1 -25.545-1.226c-8.908-1.108-10.267-2.563-10.318-3.854l-12.202-116.742a1 1 0 1 1 1.988-.208l12.2 116.683a.5.5 0 0 1 .009.056c.968 1.104 10.322 3.291 33.868 3.291 23.5 0 32.862-2.178 33.866-3.283l12.208-116.747a1 1 0 1 1 1.988.208l-12.195 116.653v.008c0 1.31-1.226 2.8-10.32 3.934a219.072 219.072 0 0 1 -25.547 1.227z"/></g></g></svg>