<svg id="Capa_1" enable-background="new 0 0 511.996 511.996" height="512" viewBox="0 0 511.996 511.996" width="512" xmlns="http://www.w3.org/2000/svg"><g><path d="m481.094 89.996h-60v30h60c8.401 0 15-6.601 15-15 0-8.401-6.599-15-15-15z" fill="#e63950"/><path d="m421.094 89.996h-5.4c-6.899 0-11.4-5.7-12.9-11.4-12.601-48.001-57.601-80.8-107.401-78.4-3.182.174-6.191 1.018-9.3 1.5-50.218 7.776-90 53.875-90 108.4 0 14.101-4.2 27.599-12.001 39l-79.799 176.4c-18.3 33.3-28.2 71.1-28.2 109.501v62c0 8.399 6.599 15 15 15s15-6.601 15-15c0-24.901 20.099-47 45-47h30c28.757 0 55.807-7.452 79.385-20.469l25.615-73.013 61.348-174.866c6.321-35.015 36.824-61.652 73.652-61.652 8.401 0 15-6.601 15-15 .001-8.402-6.598-15.001-14.999-15.001z" fill="#59c36a"/><path d="m421.094 119.996c8.401 0 15-6.601 15-15 0-8.401-6.599-15-15-15h-5.4c-6.899 0-11.4-5.7-12.9-11.4-12.601-48.001-57.601-80.8-107.401-78.4-3.182.174-6.191 1.018-9.3 1.5v354.818l61.348-174.866c6.321-35.016 36.825-61.652 73.653-61.652z" fill="#00a66c"/><path d="m331.094 179.996c-15.855 0-30.855 3.25-45 8.293-52.266 18.636-90 68.119-90 126.707 0 48.481 25.911 90.721 64.385 114.531 9.179-5.067 17.602-11.245 25.615-17.9 36.476-30.295 60-75.679 60-126.63v-90c0-4.572.564-9.001 1.348-13.348-5.422-.666-10.751-1.653-16.348-1.653z" fill="#f0f7ff"/><path d="m346.094 284.996v-90c0-4.572.564-9.001 1.348-13.348-5.422-.665-10.75-1.652-16.348-1.652-15.855 0-30.855 3.25-45 8.293v223.337c36.476-30.294 60-75.679 60-126.63z" fill="#dfe7f4"/><circle cx="331.094" cy="74.996" fill="#5a344b" r="15"/><g><path d="m183.027 373.165c-28.638 0-57.803-11.133-79.644-32.974-80.331-80.332-107.915-197.182-71.981-304.951l8.335-24.99c1.641-4.937 5.713-8.657 10.781-9.858 5.098-1.172 10.371.322 14.048 3.999l190.913 190.913c20.566 20.566 31.479 47.93 30.718 77.021-1.414 53.964-43.768 100.84-103.17 100.84z" fill="#2682ff"/></g></g></svg>