<svg id="Capa_1" enable-background="new 0 0 328.468 328.468" height="512" viewBox="0 0 328.468 328.468" width="512" xmlns="http://www.w3.org/2000/svg"><g><path d="m269.466 79.983v7.994c-5.033 1.776-9.982 3.595-14.888 5.498-85.552 33.254-164.884 80.698-234.656 140.337l-2.538 2.918-.465-.719c-11.193-22.312-16.988-46.94-16.918-71.902.048-45.025 18.945-87.973 52.108-118.428 1.396-1.353 2.876-2.622 4.23-3.891 54.984-27.915 114.536-13.027 156.494 5.752h.254c12.37 5.543 24.365 11.887 35.909 18.991l3.384 2.115.761.465c10.53 6.175 16.325 10.87 16.325 10.87z" fill="#e56353"/><path d="m273.907 112.254c0 43.818-8.713 160.258-94.531 213.424-1.396 0-2.834.254-4.23.338-3.637.254-7.275.381-10.955.381-61.923.169-118.694-34.452-146.893-89.582l-.381-.804 2.918-2.115c2.834-3.214 84.591-94.869 234.106-141.267 5.075-1.607 10.193-3.13 15.438-4.568l3.976 7.148s0 2.961.381 8.205c.129 2.411.171 5.414.171 8.84z" fill="#fcd462"/><path d="m322.885 205.981c-18.155 65.948-75.374 113.673-143.509 119.697-1.396 0-2.834.254-4.23.338 34.555-24.151 90.893-83.195 98.253-214.016 0-2.834.296-5.752.423-8.459 0-.846 0-1.734 0-2.622l13.112-3.172c2.731 2.879 5.274 5.93 7.613 9.136 7.493 10.136 13.648 21.196 18.314 32.906 8.473 20.976 11.907 43.648 10.024 66.192z" fill="#44c4a1"/><path d="m269.466 66.406-15.903 2.622-.55-.465-3.341-2.157c-11.471-7.245-23.491-13.58-35.951-18.948h-.254c-74.652-31.806-135.6-13.196-161.315-1.776 1.396-1.353 2.876-2.622 4.23-3.891 55.011-46.979 134.131-52.867 195.49-14.55 1.057.634 2.115 1.311 3.13 2.03 7.19 9.045 11.911 19.8 13.704 31.214.293 1.791.462 3.6.508 5.414.252.253.252.507.252.507z" fill="#27a2db"/><path d="m322.885 205.981c.55-12.223 1.142-40.942-9.855-66.15-5.049-11.379-11.257-22.208-18.525-32.314-2.326-3.214-4.779-6.429-7.402-9.728l-2.411-15.945 1.353-.381 3.934-.931c3.595-.846 8.459-1.861 13.365-2.538 16.423 25.718 25.141 55.6 25.124 86.114-.649 14.093-2.517 28.103-5.583 41.873z" fill="#e56353"/><path d="m303.387 77.91-13.365 2.538-4.018.761-10.278 1.946s-2.495-7.529-6.26-17.51l-2.284-6.091c-4.16-11.24-9.209-22.13-15.1-32.568 1.057.634 2.115 1.311 3.13 2.03 19.276 12.668 35.651 29.274 48.048 48.725z" fill="#fcd462"/><path d="m255.424 59.554c-9.347 4.23-9.474 19.921-.296 34.852s24.151 23.432 33.498 19.118 9.517-19.964.338-34.852c-9.178-14.888-24.193-23.432-33.54-19.118z" fill="#ebf0f3"/></g></svg>