<?xml version="1.0" encoding="iso-8859-1"?>
<!-- Generator: Adobe Illustrator 19.0.0, SVG Export Plug-In . SVG Version: 6.00 Build 0)  -->
<svg version="1.1" id="Capa_1" xmlns="http://www.w3.org/2000/svg" xmlns:xlink="http://www.w3.org/1999/xlink" x="0px" y="0px"
	 viewBox="0 0 512.001 512.001" style="enable-background:new 0 0 512.001 512.001;" xml:space="preserve">
<polyline style="fill:#4C5E66;" points="20.816,437.852 207.65,7.915 418.223,480.912 185.038,504.086 "/>
<polygon style="fill:#829399;" points="219.224,157.779 245.551,157.779 243.526,269.164 273.904,250.938 311.937,372.884 
	353.686,335.945 207.65,7.915 "/>
<polyline style="fill:#4C5E66;" points="256.603,397.449 361.007,167.901 500.948,438.008 "/>
<polygon style="fill:#829399;" points="361.008,167.905 362,299.542 388.328,299.542 413.045,466.387 500.948,438.004 "/>
<path style="fill:#8BC923;" d="M7.591,504.086H504.4V455.35c0-24.525-19.665-44.747-44.2-44.939c-0.152,0-0.304-0.01-0.456-0.01
	c-15.543,0-29.537,6.46-39.582,16.779c-9.316-28.778-36.747-49.404-68.867-48.351c-36.909,1.215-66.811,31.542-67.54,68.462
	c-0.01,0.476,0.01,0.942,0.01,1.408c-0.699-0.385-48.746-26.287-83.6,8.556c-8.172,8.05-11.614,16.981-12.131,25.922
	c-8.172-15.452-24.505-25.922-43.147-25.922c-7.149,0-13.913,1.539-20.039,4.344c-6.511-26.429-30.388-45.83-58.73-45.83
	c-0.678,0-1.357,0.01-2.025,0.03c-31.117,1.023-55.642,26.965-56.077,58.092L7.591,504.086z"/>
<g>
	<path style="fill:#7EB515;" d="M200.167,483.075c-6.673,6.562-10.197,13.731-11.533,21.011H504.4v-22.915
		c0-24.535-19.665-44.747-44.2-44.939c-0.152-0.01-0.304-0.01-0.456-0.01c-15.543,0-29.537,6.45-39.582,16.769
		c-9.316-28.778-36.747-49.404-68.867-48.341c-36.909,1.215-66.811,31.542-67.54,68.461c-0.01,0.476,0.01,0.932,0.01,1.408
		C283.068,474.134,235.02,448.221,200.167,483.075z"/>
	<path style="fill:#7EB515;" d="M7.956,504.086h177.082c-8.799-12.718-23.563-21.011-40.149-21.011
		c-7.149,0-13.913,1.539-20.039,4.344c-6.511-26.429-30.388-45.83-58.73-45.83c-0.678,0-1.357,0.01-2.025,0.03
		c-31.117,1.023-55.642,26.965-56.077,58.093L7.956,504.086z"/>
</g>
<g>
	<polygon style="fill:#BFC5D2;" points="137.548,169.232 148.281,241.055 193.848,183.337 244.427,219.77 284.799,181.221 
		207.65,7.915 	"/>
	<polygon style="fill:#BFC5D2;" points="281.012,343.772 344.208,318.508 394.757,342.973 414.077,320.027 447.645,335.135 
		447.655,335.135 361.007,167.905 	"/>
</g>
<g>
	<polygon style="fill:#F1F5FE;" points="219.224,157.779 245.551,157.779 244.427,219.77 284.799,181.221 207.65,7.915 	"/>
	<polygon style="fill:#F1F5FE;" points="361.007,167.905 361.999,299.542 388.327,299.542 394.757,342.973 414.077,320.027 
		447.645,335.135 	"/>
</g>
<path d="M508.137,435.585c-0.123-0.363-0.264-0.721-0.446-1.071l-0.027-0.053c-0.973-2.244-2.094-4.41-3.358-6.481L367.75,164.408
	c-1.338-2.581-4.071-4.153-6.937-4.098c-2.907,0.074-5.516,1.801-6.72,4.448l-34.518,75.895l-56.679-127.313
	c-1.706-3.832-6.195-5.555-10.027-3.849l0,0c-3.832,1.706-5.555,6.195-3.849,10.027l26.669,59.905l-31.946,30.499l-45.457-32.744
	c-3.297-2.375-7.879-1.734-10.4,1.456l-34.685,43.935l-7.816-52.311l62.352-143.481l25.7,57.729
	c1.706,3.832,6.195,5.555,10.027,3.849l0,0c3.832-1.706,5.555-6.195,3.849-10.027L214.588,4.827
	c-1.224-2.751-3.955-4.539-6.972-4.506c-3.012,0.013-5.731,1.805-6.932,4.568L14.351,433.672
	c-8.549,11.076-13.718,24.973-13.93,40.111l-0.42,30.009c-0.017,1.233,0.198,2.474,0.739,3.583c1.318,2.703,4.001,4.306,6.852,4.306
	h496.814c4.194,0,7.594-3.4,7.594-7.594v-48.735C512,448.369,510.621,441.696,508.137,435.585z M361.45,185.268l69.421,133.992
	l-13.68-6.155c-3.099-1.392-6.741-0.561-8.925,2.035l-15.512,18.426l-45.237-21.89c-1.92-0.931-4.146-1.008-6.127-0.216
	l-45.632,18.242L361.45,185.268z M496.811,496.492H15.293l0.316-22.496c0.387-27.492,21.793-49.72,48.737-50.605
	c0.589-0.02,1.183-0.029,1.777-0.029c24.424,0,45.54,16.471,51.351,40.052c0.541,2.197,2.034,4.039,4.072,5.022
	c2.038,0.984,4.408,1.009,6.466,0.065c5.285-2.422,10.963-3.65,16.878-3.65c15.34,0,29.301,8.38,36.436,21.872
	c1.594,3.014,5.008,4.599,8.332,3.869c3.331-0.726,5.77-3.584,5.965-6.987c0.456-7.997,3.686-14.846,9.914-20.979
	c8.19-8.189,17.949-13.283,29.007-15.14c4.136-0.695,6.926-4.611,6.232-8.748c-0.695-4.135-4.613-6.926-8.748-6.231
	c-14.236,2.391-26.762,8.911-37.189,19.338c-4.387,4.319-7.787,9.043-10.186,14.139c-10.392-10.316-24.588-16.322-39.765-16.322
	c-5.207,0-10.286,0.697-15.183,2.078c-9.941-26.026-35.004-43.568-63.584-43.568c-0.762,0-1.522,0.012-2.277,0.037
	c-8.635,0.284-16.83,2.252-24.291,5.578l94.401-217.232l6.817,45.618c0.448,2.995,2.633,5.439,5.559,6.217
	c0.647,0.172,1.302,0.255,1.952,0.255c2.289,0,4.499-1.037,5.961-2.889l41.062-52.011l44.679,32.186
	c2.968,2.138,7.038,1.856,9.683-0.669l32.582-31.106l28.923,64.969L249.69,394.305c-1.737,3.818-0.05,8.32,3.769,10.057
	c3.822,1.737,8.321,0.049,10.058-3.769l23.149-50.898l57.252-22.888l47.535,23.003c3.125,1.514,6.881,0.713,9.117-1.945
	l15.62-18.555l25.933,11.666l33.285,64.244c-4.798-1.521-9.887-2.365-15.162-2.408l-0.502-0.002
	c-13.291,0-25.934,4.11-36.532,11.739c-13.276-26.927-41.483-44.315-72.162-43.313c-19.805,0.652-38.449,8.855-52.498,23.099
	c-11.742,11.904-19.205,26.967-21.571,43.162c-3.509-1.28-7.749-2.617-12.535-3.702c-4.091-0.931-8.158,1.635-9.087,5.725
	c-0.928,4.091,1.635,8.158,5.726,9.087c6.522,1.48,11.878,3.515,15.239,4.967c0.538,8.735,2.503,17.223,5.92,25.302
	c1.633,3.863,6.092,5.67,9.952,4.036c3.863-1.633,5.672-6.09,4.036-9.953c-3.413-8.071-5.056-16.656-4.881-25.516
	c0.313-15.908,6.71-30.981,18.014-42.442c11.305-11.461,26.286-18.061,42.185-18.584c27.655-0.915,52.88,16.812,61.383,43.094
	c0.82,2.533,2.905,4.451,5.497,5.058c2.592,0.606,5.311-0.189,7.169-2.096c9.091-9.334,21.216-14.474,34.144-14.474l0.399,0.002
	c20.219,0.162,36.668,16.917,36.668,37.35V496.492z"/>
<g>
</g>
<g>
</g>
<g>
</g>
<g>
</g>
<g>
</g>
<g>
</g>
<g>
</g>
<g>
</g>
<g>
</g>
<g>
</g>
<g>
</g>
<g>
</g>
<g>
</g>
<g>
</g>
<g>
</g>
</svg>
