<svg id="Capa_1" enable-background="new 0 0 512 512" height="512" viewBox="0 0 512 512" width="512" xmlns="http://www.w3.org/2000/svg"><g><g><path d="m482 316h-146c0-38.552 0-82.624 0-120-8.345 0-234.364 0-240 0-11.05 0-20 8.95-20 20v40c0 11.05 8.95 20 20 20h-66c-11.05 0-20 8.95-20 20v80h492v-40c0-11.05-8.95-20-20-20z" fill="#a7e8a6"/><path d="m482 356h-452l-12.07 35.95 91.92 74.32h292.3l91.92-74.32z" fill="#8690a6"/><g fill="#eefaff"><path d="m416 436c0 22.16-17.976 40-40 40-22.09 0-40-17.91-40-40s17.91-40 40-40 40 17.91 40 40z"/><path d="m296 396c22.09 0 40 17.91 40 40s-17.91 40-40 40-40-17.91-40-40 17.91-40 40-40z"/><path d="m216 396c22.09 0 40 17.91 40 40s-17.91 40-40 40-40-17.91-40-40 17.91-40 40-40z"/><path d="m136 396c22.09 0 40 17.91 40 40s-17.91 40-40 40c-21.99 0-40-17.804-40-40 0-22.09 17.91-40 40-40z"/></g><path d="m336 216h166v40h-166z" fill="#8690a6"/><circle cx="482" cy="376" fill="#eefaff" r="20"/><path d="m296 36-40 40 40 40h-120v-80z" fill="#ff7b79"/><path d="m256 176v20h-120v-20c0-11.05 8.95-20 20-20h80c11.05 0 20 8.95 20 20z" fill="#8690a6"/><path d="m30 356c11.05 0 20 8.95 20 20s-8.95 20-20 20c-4.54 0-8.72-1.51-12.07-4.05l-1-.81c-4.25-3.67-6.93-9.09-6.93-15.14 0-11.05 8.95-20 20-20z" fill="#eefaff"/></g><g><circle cx="376" cy="436" r="10"/><circle cx="296" cy="436" r="10"/><circle cx="216" cy="436" r="10"/><circle cx="136" cy="436" r="10"/><path d="m502 186c-5.522 0-10 4.478-10 10v10h-146v-10c0-5.522-4.478-10-10-10h-70v-10c0-16.542-13.458-30-30-30h-50v-20h110c4.045 0 7.691-2.437 9.239-6.173 1.548-3.737.691-8.038-2.168-10.898l-32.928-32.929 32.929-32.929c2.859-2.86 3.716-7.161 2.168-10.898-1.549-3.736-5.195-6.173-9.24-6.173h-120c-5.522 0-10 4.478-10 10v110h-10c-16.542 0-30 13.458-30 30v10h-30c-16.542 0-30 13.458-30 30v40c0 3.506.61 6.87 1.72 10h-37.72c-16.542 0-30 13.458-30 30v80c0 8.47 3.556 16.834 10.526 22.812.037.031.069.066.107.096l92.93 75.138c.012.01.025.018.037.028 9.042 7.69 20.53 11.926 32.4 11.926 16.339 0 30.87-7.878 40-20.035 9.13 12.157 23.661 20.035 40 20.035s30.87-7.878 40-20.035c9.13 12.157 23.661 20.035 40 20.035s30.87-7.878 40-20.035c9.13 12.157 23.661 20.035 40 20.035 11.869 0 23.355-4.235 32.401-11.927.012-.009.024-.017.036-.027.1-.081 92.953-75.149 93.169-75.338 6.606-5.704 10.394-13.98 10.394-22.708v-40c0-16.542-13.458-30-30-30h-136v-40h156c5.522 0 10-4.478 10-10 0-9.1 0-44.228 0-60 0-5.522-4.478-10-10-10zm-316-140h85.857l-22.929 22.929c-3.905 3.905-3.905 10.237 0 14.143l22.929 22.928h-85.857zm-40 130c0-5.514 4.486-10 10-10h80c5.514 0 10 4.486 10 10v10h-100zm-106 200c0 5.514-4.486 10-10 10-5.622 0-10-4.581-10-10 0-5.514 4.486-10 10-10s10 4.486 10 10zm96 90c-16.562 0-30-13.432-30-30 0-16.542 13.458-30 30-30s30 13.458 30 30-13.458 30-30 30zm80 0c-16.542 0-30-13.458-30-30s13.458-30 30-30 30 13.458 30 30-13.458 30-30 30zm80 0c-16.542 0-30-13.458-30-30s13.458-30 30-30 30 13.458 30 30-13.458 30-30 30zm50-30c0-16.542 13.458-30 30-30s30 13.458 30 30c0 16.596-13.468 30-30 30-16.542 0-30-13.458-30-30zm136-50c-5.514 0-10-4.486-10-10s4.486-10 10-10 10 4.486 10 10c0 5.337-4.318 10-10 10zm10-50v11.72c-3.13-1.11-6.494-1.72-10-1.72h-181c-5.522 0-10 4.478-10 10s4.478 10 10 9.99h152.72c-1.11 3.14-1.72 6.504-1.72 10.01 0 10.787 5.725 20.259 14.294 25.547l-40.341 32.617c-.971-26.722-22.998-48.164-49.953-48.164-16.339 0-30.87 7.878-40 20.035-9.13-12.157-23.661-20.035-40-20.035s-30.87 7.878-40 20.035c-9.13-12.157-23.661-20.035-40-20.035s-30.87 7.878-40 20.035c-9.13-12.157-23.661-20.035-40-20.035-26.955 0-48.983 21.443-49.953 48.165l-40.342-32.617c8.569-5.288 14.295-14.761 14.295-25.548 0-3.506-.61-6.87-1.72-10h152.72c5.522 0 10-4.478 10-10s-4.478-10-10-10h-181c-3.506 0-6.87.61-10 1.72v-51.72c0-5.514 4.486-10 10-10h103.64l77.889 38.944c1.388.694 2.919 1.056 4.472 1.056h266c5.513 0 9.999 4.486 9.999 10zm-273.64-30-77.889-38.944c-1.381-.691-3.02-1.056-4.471-1.056h-40c-5.514 0-10-4.486-10-10v-40c0-5.514 4.486-10 10-10h230v100zm273.64-60h-146v-20h146z"/><path d="m216 226c-5.522 0-10 4.478-10 10v40c0 5.522 4.478 10 10 10s10-4.478 10-10v-40c0-5.522-4.478-10-10-10z"/><path d="m256 226c-5.522 0-10 4.478-10 10v40c0 5.522 4.478 10 10 10s10-4.478 10-10v-40c0-5.522-4.478-10-10-10z"/><path d="m296 226c-5.522 0-10 4.478-10 10v40c0 5.522 4.478 10 10 10s10-4.478 10-10v-40c0-5.522-4.478-10-10-10z"/><circle cx="256" cy="356" r="10"/></g></g></svg>