<svg height="512" viewBox="0 0 512 512" width="512" xmlns="http://www.w3.org/2000/svg"><path d="m464 160h16v16h-16z" fill="#dc4d41"/><path d="m32 160h16v16h-16z" fill="#dc4d41"/><g fill="#b94137"><path d="m200 176a8 8 0 0 1 -8-8v-16a8 8 0 0 1 16 0v16a8 8 0 0 1 -8 8z"/><path d="m312 176a8 8 0 0 1 -8-8v-16a8 8 0 0 1 16 0v16a8 8 0 0 1 -8 8z"/><path d="m248 168h16v40h-16z"/><path d="m152 216c-4.418 0-8 4.418-8 0v-32a8 8 0 0 1 16 0v32c0 4.418-3.582 0-8 0z"/><path d="m200 208c-4.418 0-8 4.418-8 0v-40c0-4.418 3.582 0 8 0s8-4.418 8 0v40c0 4.418-3.582 0-8 0z"/><path d="m360 216c-4.418 0-8 4.418-8 0v-32c0-4.418 3.582 0 8 0s8-4.418 8 0v32c0 4.418-3.582 0-8 0z"/><path d="m408 232c-4.418 0-8 4.418-8 0v-40c0-4.418 3.582 0 8 0s8-4.418 8 0v40c0 4.418-3.582 0-8 0z"/><path d="m312 208c-4.418 0-8 4.418-8 0v-40c0-4.418 3.582 0 8 0s8-4.418 8 0v40c0 4.418-3.582 0-8 0z"/><path d="m104 232c-4.418 0-8 4.418-8 0v-40a8 8 0 0 1 16 0v40c0 4.418-3.582 0-8 0z"/></g><path d="m473.735 195.746-160-35.556a8.034 8.034 0 0 0 -1.735-.19h-112a8.034 8.034 0 0 0 -1.735.19l-154.723 34.383a8 8 0 1 0 3.471 15.619l153.865-34.192h110.244l159.143 35.365a8 8 0 1 0 3.47-15.619z" fill="#f55648"/><path d="m470.176 243.458-164.14-43.195a7.992 7.992 0 0 0 -2.036-.263h-96a7.992 7.992 0 0 0 -2.036.263l-152 40a8 8 0 1 0 4.072 15.474l151-39.737h93.93l163.134 42.932a8 8 0 0 0 4.072-15.474z" fill="#c7463b"/><path d="m456 248v80h-48v-8l-18.48-20.54a179.642 179.642 0 0 0 -267.04 0l-18.48 20.54-8 8h-40v-80l152-40h96z" fill="#a8a8a8"/><path d="m456 248v72h-48v-8l-18.48-20.54a179.642 179.642 0 0 0 -267.04 0l-18.48 20.54-16 16-32-8v-72l152-40h96z" fill="#cbcbcb"/><circle cx="40" cy="152" fill="#dc4d41" r="16"/><circle cx="472" cy="152" fill="#dc4d41" r="16"/><path d="m55 264h57v16h-57z" fill="#a8a8a8"/><path d="m55 288h41v16h-41z" fill="#a8a8a8"/><path d="m400 264h57v16h-57z" fill="#a8a8a8"/><path d="m416 288h41v16h-41z" fill="#a8a8a8"/><path d="m56 328h-32v-152l8-8h16l8 8z" fill="#dc4d41"/><path d="m456 328h32v-152l-8-8h-16l-8 8z" fill="#dc4d41"/><path d="m496 362c-48 0-48-20-96-20s-48 20-96 20-48-20-96-20-48 20-96 20-48-20-96-20v-40c48 0 48 20 96 20s48-20 96-20 48 20 96 20 48-20 96-20 48 20 96 20z" fill="#6cbae5"/></svg>